HIERARCHY
ROOT hip
{
  OFFSET 0 0 0
  CHANNELS 6 Xposition Yposition Zposition Zrotation Yrotation Xrotation
  JOINT abdomen
  {
    OFFSET 0 20.6881 -0.73152
    CHANNELS 3 Zrotation Xrotation Yrotation
    JOINT chest
    {
      OFFSET 0 11.7043 -0.48768
      CHANNELS 3 Zrotation Xrotation Yrotation
      JOINT neck
      {
        OFFSET 0 22.1894 -2.19456
        CHANNELS 3 Zrotation Xrotation Yrotation
        JOINT head
        {
          OFFSET -0.24384 7.07133 1.2192
          CHANNELS 3 Zrotation Xrotation Yrotation
          JOINT leftEye
          {
            OFFSET 4.14528 8.04674 8.04672
            CHANNELS 3 Zrotation Xrotation Yrotation
            End Site
            {
              OFFSET 1 0 0
            }
          }
          JOINT rightEye
          {
            OFFSET -3.6576 8.04674 8.04672
            CHANNELS 3 Zrotation Xrotation Yrotation
            End Site
            {
              OFFSET 1 0 0
            }
          }
        }
      }
      JOINT rCollar
      {
        OFFSET -2.68224 19.2634 -4.8768
        CHANNELS 3 Zrotation Xrotation Yrotation
        JOINT rShldr
        {
          OFFSET -8.77824 -1.95073 1.46304
          CHANNELS 3 Zrotation Xrotation Yrotation
          JOINT rForeArm
          {
            OFFSET -28.1742 -1.7115 0.48768
            CHANNELS 3 Zrotation Xrotation Yrotation
            JOINT rHand
            {
              OFFSET -22.5879 0.773209 7.07136
              CHANNELS 3 Zrotation Xrotation Yrotation
              JOINT rThumb1
              {
                OFFSET -1.2192 -0.487915 3.41376
                CHANNELS 3 Zrotation Xrotation Yrotation
                JOINT rThumb2
                {
                  OFFSET -3.37035 -0.52449 3.41376
                  CHANNELS 3 Zrotation Xrotation Yrotation
                  End Site
                  {
                    OFFSET -1.78271 -1.18214 1.43049
                  }
                }
              }
              JOINT rIndex1
              {
                OFFSET -7.75947 0.938293 5.60832
                CHANNELS 3 Zrotation Xrotation Yrotation
                JOINT rIndex2
                {
                  OFFSET -2.54057 -0.884171 1.56538
                  CHANNELS 3 Zrotation Xrotation Yrotation
                  End Site
                  {
                    OFFSET -1.62519 -0.234802 1.16502
                  }
                }
              }
              JOINT rMid1
              {
                OFFSET -8.24714 1.18213 3.41376
                CHANNELS 3 Zrotation Xrotation Yrotation
                JOINT rMid2
                {
                  OFFSET -3.10165 -0.590103 1.0647
                  CHANNELS 3 Zrotation Xrotation Yrotation
                  End Site
                  {
                    OFFSET -2.48547 -0.328903 0.83742
                  }
                }
              }
              JOINT rRing1
              {
                OFFSET -8.82822 0.546677 1.51678
                CHANNELS 3 Zrotation Xrotation Yrotation
                JOINT rRing2
                {
                  OFFSET -2.60934 -0.819778 -0.0198488
                  CHANNELS 3 Zrotation Xrotation Yrotation
                  End Site
                  {
                    OFFSET -2.33842 -0.294052 0.168128
                  }
                }
              }
              JOINT rPinky1
              {
                OFFSET -8.27202 -0.0477905 -0.4584
                CHANNELS 3 Zrotation Xrotation Yrotation
                JOINT rPinky2
                {
                  OFFSET -1.82734 -0.647385 -0.700984
                  CHANNELS 3 Zrotation Xrotation Yrotation
                  End Site
                  {
                    OFFSET -1.69225 -0.51767 -0.607171
                  }
                }
              }
            }
          }
        }
      }
      JOINT lCollar
      {
        OFFSET 2.68224 19.2634 -4.8768
        CHANNELS 3 Zrotation Xrotation Yrotation
        JOINT lShldr
        {
          OFFSET 8.77824 -1.95073 1.46304
          CHANNELS 3 Zrotation Xrotation Yrotation
          JOINT lForeArm
          {
            OFFSET 28.1742 -1.7115 0.48768
            CHANNELS 3 Zrotation Xrotation Yrotation
            JOINT lHand
            {
              OFFSET 22.5879 0.773209 7.07136
              CHANNELS 3 Zrotation Xrotation Yrotation
              JOINT lThumb1
              {
                OFFSET 1.2192 -0.487915 3.41376
                CHANNELS 3 Zrotation Xrotation Yrotation
                JOINT lThumb2
                {
                  OFFSET 3.37035 -0.52449 3.41376
                  CHANNELS 3 Zrotation Xrotation Yrotation
                  End Site
                  {
                    OFFSET 1.78271 -1.18214 1.43049
                  }
                }
              }
              JOINT lIndex1
              {
                OFFSET 7.75947 0.938293 5.60832
                CHANNELS 3 Zrotation Xrotation Yrotation
                JOINT lIndex2
                {
                  OFFSET 2.54057 -0.884171 1.56538
                  CHANNELS 3 Zrotation Xrotation Yrotation
                  End Site
                  {
                    OFFSET 1.62519 -0.234802 1.16502
                  }
                }
              }
              JOINT lMid1
              {
                OFFSET 8.24714 1.18213 3.41376
                CHANNELS 3 Zrotation Xrotation Yrotation
                JOINT lMid2
                {
                  OFFSET 3.10165 -0.590103 1.0647
                  CHANNELS 3 Zrotation Xrotation Yrotation
                  End Site
                  {
                    OFFSET 2.48547 -0.328903 0.83742
                  }
                }
              }
              JOINT lRing1
              {
                OFFSET 8.82822 0.546677 1.51678
                CHANNELS 3 Zrotation Xrotation Yrotation
                JOINT lRing2
                {
                  OFFSET 2.60934 -0.819778 -0.0198488
                  CHANNELS 3 Zrotation Xrotation Yrotation
                  End Site
                  {
                    OFFSET 2.33842 -0.294052 0.168128
                  }
                }
              }
              JOINT lPinky1
              {
                OFFSET 8.27202 -0.0477905 -0.4584
                CHANNELS 3 Zrotation Xrotation Yrotation
                JOINT lPinky2
                {
                  OFFSET 1.82734 -0.647385 -0.700984
                  CHANNELS 3 Zrotation Xrotation Yrotation
                  End Site
                  {
                    OFFSET 1.69225 -0.51767 -0.607171
                  }
                }
              }
            }
          }
        }
      }
    }
  }
  JOINT rButtock
  {
    OFFSET -8.77824 4.35084 1.2192
    CHANNELS 3 Zrotation Xrotation Yrotation
    JOINT rThigh
    {
      OFFSET 0 -1.70687 -2.19456
      CHANNELS 3 Zrotation Xrotation Yrotation
      JOINT rShin
      {
        OFFSET 0 -36.8199 0.73152
        CHANNELS 3 Zrotation Xrotation Yrotation
        JOINT rFoot
        {
          OFFSET 0.73152 -45.1104 -5.12064
          CHANNELS 3 Zrotation Xrotation Yrotation
          End Site
          {
            OFFSET -1.1221 -3.69964 12.103
          }
        }
      }
    }
  }
  JOINT lButtock
  {
    OFFSET 8.77824 4.35084 1.2192
    CHANNELS 3 Zrotation Xrotation Yrotation
    JOINT lThigh
    {
      OFFSET 0 -1.70687 -2.19456
      CHANNELS 3 Zrotation Xrotation Yrotation
      JOINT lShin
      {
        OFFSET 0 -36.8199 0.73152
        CHANNELS 3 Zrotation Xrotation Yrotation
        JOINT lFoot
        {
          OFFSET -0.73152 -45.1104 -5.12064
          CHANNELS 3 Zrotation Xrotation Yrotation
          End Site
          {
            OFFSET 1.1221 -3.69964 12.103
          }
        }
      }
    }
  }
}
MOTION
Frames:	8
Frame Time:	0.03333
0.0 0.0 0.0 0.0 0.0 0.0 0.0 0.0 0.0 0.0 0.0 0.0 0.0 0.0 0.0 0.0 0.0 0.0 0.0 0.0 0.0 0.0 0.0 0.0 0.0 0.0 0.0 0.0 0.0 0.0 0.0 0.0 0.0 0.0 0.0 0.0 0.0 0.0 0.0 0.0 0.0 0.0 0.0 0.0 0.0 0.0 0.0 0.0 0.0 0.0 0.0 0.0 0.0 0.0 0.0 0.0 0.0 0.0 0.0 0.0 0.0 0.0 0.0 0.0 0.0 0.0 0.0 0.0 0.0 0.0 0.0 0.0 0.0 0.0 0.0 0.0 0.0 0.0 0.0 0.0 0.0 0.0 0.0 0.0 0.0 0.0 0.0 0.0 0.0 0.0 0.0 0.0 0.0 0.0 0.0 0.0 0.0 0.0 0.0 0.0 0.0 0.0 0.0 0.0 0.0 0.0 0.0 0.0 0.0 0.0 0.0 0.0 0.0 0.0 0.0 0.0 0.0 0.0 0.0 0.0 0.0 0.0 0.0 0.0 0.0 0.0 0.0 0.0 0.0 0.0 0.0 0.0
0.5861 67.2271 0.0867 -50.34471 70.96834 -48.046261 11.287187 1.428688 88.013196 -3.892087 -3.78281 -77.396529 10.349965 21.256849 106.424501 -23.427979 15.08179 -105.518908 2.9e-05 0.0 0.002429 -0.000489 0.0 -0.003556 -6.029297 25.557003 7.219976 -111.888959 -15.174027 128.724924 0.508504 -2.445788 -78.803072 102.094734 -60.021204 100.994732 -166.631597 -4.304607 89.772242 -148.252479 3.567 75.063164 -148.887353 -12.609367 120.244888 -163.874408 -19.903341 119.471214 -160.099432 -4.901134 142.968216 -25.587269 49.016723 21.195941 -0.000206 -0.060737 -0.019824 -156.108888 -13.745189 173.482742 -154.554255 46.645338 -149.144757 45.263035 80.187256 -9.51097 8.628102 32.510127 -10.087777 102.590846 -15.419638 -83.719078 -175.430856 27.794946 110.090603 13.295102 -23.456448 6.281989 -6.463393 -6.452786 0.634706 -55.258613 -81.408951 10.016032 -37.216874 -57.917448 0.641901 156.357134 -14.231903 -113.677468 36.03704 51.722205 -29.834194 -2.835949 1.674221 -0.297922 0.000636 -0.060907 0.01871 44.293067 77.33536 -57.51886 140.387731 -1.530688 137.474179 162.108675 55.906133 146.73516 0.000714 -0.00036 -0.0 4.820624 -2.035046 -180.0 -35.159564 -57.921843 -40.154658 -119.805266 48.055226 -138.531848 179.999951 75.748875 5e-05 -152.453706 1.884551 -90.257126 -70.293503 4.40738 95.164118 -46.212552 -0.195546 2.476769
0.7676999999999999 66.9983 0.1343 -50.348744 70.890892 -48.00832 11.492607 1.700531 80.485915 -3.623794 -4.230036 -69.762646 9.958797 23.026692 116.65829 -22.406036 19.220845 -115.156863 0.003499 -0.0 -0.002115 -0.001466 -0.0 0.004265 0.117997 -0.714015 -0.158305 76.709936 6.589538 23.438596 -178.775305 -22.463154 98.665129 111.741987 -58.375219 110.375038 -0.44148 0.435392 0.0685 -76.334272 25.729776 69.932433 60.461451 -70.523739 15.710958 -170.125373 -36.017215 111.885089 173.123469 -66.297691 137.615601 -42.516218 58.334596 36.418818 5e-05 0.06387 0.018996 -140.366762 60.456125 154.513878 7.928186 24.811917 6.99979 -152.753822 29.113474 -147.081643 152.128143 14.11314 -157.556757 -125.784493 -20.502446 139.328972 167.43162 44.513475 -71.620966 158.629418 14.37348 -138.116504 -4.530872 -4.514109 0.52058 14.042163 14.192561 -9.42249 -19.567342 -35.040638 5.988014 9.633453 30.22592 -9.389448 89.835299 60.702441 -81.262906 170.181629 -26.298277 -144.086113 -0.003027 1.770492 -0.555957 140.503255 60.46195 -154.514596 87.575719 -50.209092 85.929975 93.588103 -50.887561 93.818013 179.873632 75.75012 0.097398 -165.420627 73.612256 124.978933 21.20632 -55.722977 -51.7968 -114.66156 -28.461922 -176.239711 179.964926 75.749471 0.028858 -153.363779 2.5392 -0.70268 -14.36987 74.690115 -73.297796 143.475183 43.061356 -76.531244
1.0278 66.7319 0.1581 -51.167462 70.973511 -48.694012 16.224555 1.529435 -84.759347 3.966728 -1.448239 95.560319 3.571824 29.500957 169.691522 -5.572324 34.342901 -169.390317 0.003896 -0.0 -0.003179 -0.001087 -0.0 0.00319 -0.049068 0.292309 0.065751 -84.841646 15.628382 151.667723 121.313733 7.972931 -164.293049 172.784227 24.652379 163.429804 -175.761865 -13.397609 89.765226 118.585461 -63.422135 88.448405 0.183539 -0.300749 -0.103981 -143.959062 10.932243 106.927521 5.590685 -17.377244 -2.454033 -175.27022 -39.358494 143.333995 -145.121829 2.055542 -179.774999 11.426631 58.802734 -1.65063 -135.07151 -13.385257 -132.470777 -147.654255 13.489341 -142.240325 0.165195 0.97928 -0.218119 -146.996848 -20.58887 -56.869915 -147.738842 -42.560913 -51.525856 141.3332 39.324492 -120.932847 -71.831439 -48.264471 -25.790444 11.787134 -70.108342 45.706911 9.376099 13.535785 -6.013234 124.534781 32.303437 -95.502528 160.889709 -7.337708 -143.344622 -3.156134 0.178519 -0.385813 132.480606 54.102805 -155.533214 155.127372 -37.717475 175.038541 5.514539 -12.596748 5.173743 158.3373 52.447466 149.900002 0.004093 -0.000822 0.004093 3.651776 -0.571672 81.114778 56.198348 -2.824736 -165.155355 129.104787 10.948608 -8.020313 0.004093 -0.000822 0.004093 61.174065 -60.56455 150.4584 84.47214 -3.786077 99.737377 -1.208555 13.473682 165.806938
1.2555 66.53710000000001 0.23070000000000002 -51.092005 70.979334 -48.642223 13.915209 3.666925 -0.0 1.228937 -6.212196 10.839695 -10.219061 16.779723 -57.220412 25.101991 -0.810601 57.401613 -0.004195 -0.0 0.002374 -0.004195 -0.0 0.002374 -0.049289 0.292333 0.065366 -99.42622 -14.535452 153.617839 -167.018144 -25.670251 -133.883118 -12.979924 67.059213 14.155318 -170.194142 -7.877317 89.944109 -40.035079 -22.00491 6.95075 11.980638 -21.347027 -5.062031 -64.261632 49.138052 51.359281 -151.476139 17.841645 137.538834 -163.953524 -7.058108 143.208358 -145.118264 0.267853 -179.212312 -145.059056 -50.808829 -167.341281 -144.1116 8.78168 -140.87403 -76.212077 -52.928432 -75.905297 80.165938 68.371803 -83.26089 143.051227 46.507739 -60.148662 94.134709 -2.658907 -167.354304 178.719196 -62.979696 -156.434219 164.491931 -2.167581 -89.561623 -49.130117 -63.882411 -39.086378 -2.324765 -3.867932 1.260742 165.982654 -20.589762 -109.696572 164.636471 -19.283779 -144.734088 163.551866 -5.430019 -143.036018 145.101698 -1.480538 178.663938 154.777676 -5.700463 178.4869 159.764754 65.345637 151.08184 141.782149 -5.837291 137.043758 0.036418 0.000981 0.027314 3.567456 -0.73388 92.613509 62.292119 -21.620628 76.488916 31.818067 20.580277 143.497055 0.036418 0.000981 0.027314 60.887003 -59.191274 57.610622 -7.394448 73.374777 -52.421642 91.300406 42.964466 -20.851348
1.4546 66.3384 0.29619999999999996 -51.22812 70.784803 -48.826281 11.738924 1.101626 95.286038 -3.940505 -3.193059 -84.416215 -5.625485 11.619529 -18.477132 13.168395 -12.827347 18.889975 -0.001615 0.0 -0.003158 -0.001183 -0.0 0.002852 -159.220934 -48.028443 170.415288 99.720925 36.009415 -109.256136 147.742046 -48.845941 74.439196 140.754442 -44.408639 138.204641 -166.632018 -4.304608 89.771358 -166.164288 -6.42869 85.334173 -160.017532 -33.012074 122.695662 -3.711356 28.416087 -1.610412 23.902932 -61.333972 1.400665 -162.335747 -1.379856 142.851877 -145.118783 0.267875 -179.212161 11.428998 17.995623 -6.909536 -157.325958 57.245875 -150.516301 15.576059 42.906674 6.416703 8.660144 32.586259 -10.123428 -62.252756 6.640493 -97.64516 -122.391378 22.776024 -113.731539 105.068283 54.787316 -84.807392 103.200156 36.331825 -60.111291 88.476773 -4.907535 -58.97907 108.428286 34.161899 -91.743341 119.970547 44.063768 -92.189141 -6.530772 -20.415298 2.718428 42.137907 58.541938 -36.10208 74.839764 72.961556 -92.827749 -5.726276 14.865056 2.648513 148.683579 23.978149 144.837518 128.269032 -27.904435 125.442624 179.993982 75.751714 0.004118 -160.110952 75.576433 -20.483318 32.400098 47.592506 47.868136 85.741754 76.288727 172.543915 -0.000534 -0.000948 0.000686 65.657363 -60.176776 -111.429889 -21.626147 -80.620146 52.403599 -0.929589 46.486031 90.370349
1.6157000000000001 66.1781 0.3764 -51.506973 70.739416 -49.063272 11.911735 1.153652 91.131944 -3.878301 -3.483661 -80.188691 -8.838832 26.560304 -116.020056 23.987234 23.463076 111.574538 -0.002526 -0.0 0.001122 -0.003188 0.0 -0.004562 -155.613716 -4.236449 161.990986 126.865092 15.271496 -162.851995 -2.885511 34.467887 47.175926 -17.389576 71.73871 17.312328 -121.364327 30.328999 71.95746 -91.330465 -4.294444 53.361486 159.640947 -69.973375 102.39416 -163.260359 -27.045823 116.674475 -36.0365 51.723203 29.831826 -83.148593 64.250028 75.293786 -145.119368 0.267549 -179.21287 11.902338 29.602652 -5.638855 177.392724 85.932973 -135.599442 0.35281 -2.626659 -2.021091 -1.990151 -14.052861 2.881736 54.380998 6.460578 -138.713423 101.438635 -14.704101 87.943082 -175.880485 -81.793699 -156.994763 85.828999 38.630454 -47.955769 -40.741214 -36.127893 -21.955008 -159.64293 -69.973539 -102.39861 -20.702928 -8.950266 8.603727 156.90269 4.412405 -141.206012 169.523927 -23.676407 -143.917668 145.098671 -1.604476 178.622567 147.987433 -43.025721 170.607853 132.044028 -18.854127 129.578327 135.328424 -15.985524 132.603503 0.002741 -0.000978 0.004112 3.886701 -0.367465 91.194761 52.600591 -12.451493 -138.658815 42.870219 -23.596932 8.777714 179.998091 75.749941 0.00197 -154.17699 -0.073071 89.849001 73.530209 -5.008984 -86.441577 89.672555 -20.567244 -21.518805
1.7498 66.0187 0.42700000000000005 -51.923692 70.70545 -49.465178 14.307167 3.548229 -0.296643 1.174907 -6.279077 11.425313 9.349093 16.527721 78.158158 -22.050754 2.489537 -80.000517 -0.00366 0.0 -0.000561 -0.003001 -0.0 0.005124 4.239593 -44.742763 -8.647419 19.745597 -65.720728 -60.156011 4.599816 -54.976637 -76.153026 108.1625 -59.104287 106.873482 85.584226 -50.524989 35.246717 -86.696972 -86.642045 -126.151433 -46.209287 39.652902 36.317818 4.013953 4.12906 -1.869391 -0.056603 0.167945 0.033212 3.164863 0.193835 -0.002212 -145.120647 0.226719 -179.199365 -156.278537 63.711341 172.353641 -1.178754 -2.984827 -1.094364 -2.766774 -13.063731 -4.665699 155.809679 -5.555371 -162.266861 6.56403 33.904386 77.28463 158.201895 81.567634 131.296823 11.336637 -32.021872 8.048063 7.352022 7.061944 -1.570083 7.793065 8.546399 -10.906677 145.337626 -6.265325 -118.676616 86.482088 56.655141 -67.06487 151.477007 17.841825 -137.538901 7.401728 26.130347 -6.428043 145.120267 0.267511 179.212889 -11.904304 29.602499 5.64132 169.002448 80.995425 147.426336 -1.531207 0.368971 1.16544 -179.980669 75.749603 -0.013227 -156.575848 74.157306 -117.761641 -51.220538 14.892777 129.562593 -32.472307 23.374967 -74.083524 0.002949 -0.000641 0.002949 64.093131 -60.881351 160.485108 77.046528 -19.187807 -37.22273 -114.979457 29.051202 28.02983
